<?xml version="1.0" encoding="UTF-8" standalone="no"?>
<svg
   fill="none"
   viewBox="0 0 100 100"
   stroke-width="1.5"
   stroke="currentColor"
   class="w-100 h-100"
   version="1.1"
   id="svg4"
   sodipodi:docname="envelope-open.svg"
   xmlns:sodipodi="http://sodipodi.sourceforge.net/DTD/sodipodi-0.dtd"
   xmlns="http://www.w3.org/2000/svg"
   xmlns:svg="http://www.w3.org/2000/svg">
  <defs
     id="defs8" />
  <path
     stroke-linecap="round"
     stroke-linejoin="round"
     d="M21.75 9v.906a2.25 2.25 0 0 1-1.183 1.981l-6.478 3.488M2.25 9v.906a2.25 2.25 0 0 0 1.183 1.981l6.478 3.488m8.839 2.51-4.66-2.51m0 0-1.023-.55a2.25 2.25 0 0 0-2.134 0l-1.022.55m0 0-4.661 2.51m16.5 1.615a2.25 2.25 0 0 1-2.25 2.25h-15a2.25 2.25 0 0 1-2.25-2.25V8.844a2.25 2.25 0 0 1 1.183-1.981l7.5-4.039a2.25 2.25 0 0 1 2.134 0l7.5 4.039a2.25 2.25 0 0 1 1.183 1.98V19.5Z"
     id="path2"
     style="stroke:#aa4e00;stroke-opacity:1;fill-opacity:1" />
</svg>
